PathFileType	4	(X/Y/Z)	/Users/itak/Documents/Research/Walk-IL/dataset/trc/00452_00167.trc
DataRate	CameraRate	NumFrames	NumMarkers	Units	OrigDataRate	OrigDataStartFrame	OrigNumFrames
100.000000	100.000000	4	53	mm	100.000000	54	437
Frame#	Time	RPSI			LPSI			L3			STRN			T10			C7			CLAV			RBAK			LBAK			LSHO			LUPA			LAEL			LAOL			LWTS			LWPS			LFRA			LIFD			LHPS			LHTS			RSHO			RUPA			RAEL			RAOL			RWTS			RWPS			RFRA			RIFD			RHTS			RHPS			RBHD			LFHD			RFHD			LBHD			LHIP			RHIP			RASI			LASI			LKNE			LTHI			LANK			LTIP			LTOE			LMT1			LMT5			LHEE			RKNE			RTHI			RANK			RTIP			RTOE			RMT1			RMT5			RHEE			
		X1	Y1	Z1	X2	Y2	Z2	X3	Y3	Z3	X4	Y4	Z4	X5	Y5	Z5	X6	Y6	Z6	X7	Y7	Z7	X8	Y8	Z8	X9	Y9	Z9	X10	Y10	Z10	X11	Y11	Z11	X12	Y12	Z12	X13	Y13	Z13	X14	Y14	Z14	X15	Y15	Z15	X16	Y16	Z16	X17	Y17	Z17	X18	Y18	Z18	X19	Y19	Z19	X20	Y20	Z20	X21	Y21	Z21	X22	Y22	Z22	X23	Y23	Z23	X24	Y24	Z24	X25	Y25	Z25	X26	Y26	Z26	X27	Y27	Z27	X28	Y28	Z28	X29	Y29	Z29	X30	Y30	Z30	X31	Y31	Z31	X32	Y32	Z32	X33	Y33	Z33	X34	Y34	Z34	X35	Y35	Z35	X36	Y36	Z36	X37	Y37	Z37	X38	Y38	Z38	X39	Y39	Z39	X40	Y40	Z40	X41	Y41	Z41	X42	Y42	Z42	X43	Y43	Z43	X44	Y44	Z44	X45	Y45	Z45	X46	Y46	Z46	X47	Y47	Z47	X48	Y48	Z48	X49	Y49	Z49	X50	Y50	Z50	X51	Y51	Z51	X52	Y52	Z52	X53	Y53	Z53	

55	0.54	-1816.945922851562	965.2820434570312	-562.286376953125	-1747.258056640625	966.6735229492188	-685.061279296875	-1778.252075195312	1060.372436523438	-602.9953002929688	-1532.894897460938	1253.989624023438	-485.3785705566406	-1792.355590820312	1185.30322265625	-612.9299926757812	-1734.52880859375	1453.134399414062	-566.2771606445312	-1562.978637695312	1367.924682617188	-503.7665710449219	-1836.251708984375	1334.056640625	-513.4189453125	-1723.126220703125	1406.875	-669.7831420898438	-1595.484497070312	1430.2236328125	-701.9810180664062	-1565.400634765625	1312.343017578125	-796.9093627929688	-1537.047973632812	1097.802001953125	-826.4421997070312	-1631.494384765625	1079.36376953125	-790.1433715820312	-1461.838134765625	906.9938354492188	-771.9044799804688	-1499.05224609375	881.7518920898438	-832.984375	-1512.275146484375	1012.005493164062	-832.3136596679688	-1426.213623046875	745.3148803710938	-760.1494750976562	-1477.002807617188	801.8450927734375	-825.7556762695312	-1428.824462890625	824.65673828125	-776.48486328125	-1744.929565429688	1417.695190429688	-392.311279296875	-1793.316772460938	1354.51025390625	-332.9195556640625	-1802.950561523438	1068.038818359375	-279.059814453125	-1834.020385742188	1051.572509765625	-337.1716918945312	-1693.033081054688	866.9456176757812	-276.1289367675781	-1776.4111328125	850.1460571289062	-253.6128692626953	-1803.484985351562	1009.942077636719	-269.0793762207031	-1690.409057617188	708.173095703125	-269.1700134277344	-1682.863647460938	766.94921875	-258.9447326660156	-1758.062133789062	763.516357421875	-247.6816558837891	-1671.983764648438	1649.644897460938	-441.7633972167969	-1479.158569335938	1640.33056640625	-521.9600830078125	-1539.073974609375	1641.113525390625	-404.3374633789062	-1606.18505859375	1655.71875	-606.9631958007812	-1572.580322265625	865.7957763671875	-723.539306640625	-1784.071899414062	862.1060180664062	-387.2726440429688	-1661.149047851562	902.3342895507812	-385.9281616210938	-1522.731567382812	902.2308959960938	-605.7809448242188	-1573.970947265625	443.1881713867188	-693.2312622070312	-1543.338745117188	596.1338500976562	-698.2407836914062	-1681.261840820312	34.92719268798828	-760.96142578125	-1595.203491210938	292.03564453125	-722.0650634765625	-1511.134887695312	44.72579193115234	-593.6466674804688	-1587.58251953125	54.1402587890625	-599.4434814453125	-1540.39599609375	43.88010025024414	-705.6878662109375	-1754.379638671875	37.14865493774414	-737.8681030273438	-1748.260009765625	470.3201293945312	-391.3914794921875	-1752.280029296875	729.6495361328125	-352.9845275878906	-1821.693969726562	42.49343872070312	-416.1203308105469	-1765.024169921875	325.973876953125	-380.6907653808594	-1609.181762695312	49.32056427001953	-358.934326171875	-1648.174926757812	55.8050537109375	-418.9100036621094	-1714.776977539062	47.13432693481445	-332.6082458496094	-1858.368774414062	34.39109039306641	-488.6207885742188	
56	0.55	-1816.92529296875	965.2387084960938	-561.955322265625	-1747.406127929688	966.7274169921875	-684.80419921875	-1778.3095703125	1060.517578125	-602.7001953125	-1532.6943359375	1253.94921875	-485.15576171875	-1792.420288085938	1185.419311523438	-612.6590576171875	-1734.338256835938	1453.210571289062	-566.0092163085938	-1562.691162109375	1367.895874023438	-503.5351257324219	-1836.030639648438	1334.10791015625	-513.0269775390625	-1722.90869140625	1406.890380859375	-669.4165649414062	-1595.318481445312	1430.227172851562	-701.7252197265625	-1565.25830078125	1312.382202148438	-796.6936645507812	-1536.938598632812	1097.896850585938	-826.3734741210938	-1631.446899414062	1079.466064453125	-790.0993041992188	-1461.605346679688	907.032958984375	-772.0252075195312	-1498.960205078125	881.763916015625	-833.0699462890625	-1512.190307617188	1012.085632324219	-832.3075561523438	-1425.976318359375	745.3543090820312	-760.2716674804688	-1477.013549804688	801.9173583984375	-825.9413452148438	-1428.87060546875	824.6314086914062	-776.6389770507812	-1744.619750976562	1417.755737304688	-391.9472351074219	-1793.004150390625	1354.59716796875	-332.5579833984375	-1802.78564453125	1068.138671875	-278.6588439941406	-1833.81201171875	1051.65625	-336.7210083007812	-1692.939208984375	867.0156860351562	-275.8825378417969	-1776.187744140625	850.227294921875	-253.2103271484375	-1803.300415039062	1010.056335449219	-268.7091064453125	-1690.506469726562	708.2565307617188	-268.7523498535156	-1682.7958984375	767.059326171875	-258.5547790527344	-1757.923950195312	763.6408081054688	-247.3326873779297	-1671.612670898438	1649.660522460938	-441.4793395996094	-1478.870361328125	1640.19384765625	-521.7474365234375	-1538.73486328125	1640.99560546875	-404.1158142089844	-1605.853881835938	1655.711181640625	-606.6016235351562	-1572.756225585938	865.8154296875	-723.4472045898438	-1784.038940429688	862.1489868164062	-387.0599670410156	-1660.99267578125	902.3521728515625	-385.7340393066406	-1522.772583007812	902.2272338867188	-605.6973876953125	-1574.087890625	443.2143859863281	-693.2099609375	-1543.516479492188	596.14501953125	-698.1602783203125	-1681.28662109375	34.94532012939453	-760.9526977539062	-1595.2197265625	292.0671997070312	-722.0150146484375	-1511.136840820312	44.72043609619141	-593.6483154296875	-1587.592651367188	54.14193725585938	-599.446044921875	-1540.398681640625	43.8819694519043	-705.6905517578125	-1754.389526367188	37.14658737182617	-737.8522338867188	-1748.24072265625	470.2820129394531	-391.249755859375	-1752.236694335938	729.6770629882812	-352.8056335449219	-1821.698120117188	42.47369766235352	-416.1136779785156	-1765.031982421875	325.9514465332031	-380.6103515625	-1609.186279296875	49.3267822265625	-358.9428100585938	-1648.185180664062	55.80484390258789	-418.906982421875	-1714.77978515625	47.13238525390625	-332.6050109863281	-1858.4462890625	34.39365768432617	-488.5727844238281	
57	0.5600000000000001	-1816.93505859375	965.19482421875	-561.6023559570312	-1747.585205078125	966.7687377929688	-684.5349731445312	-1778.365600585938	1060.65673828125	-602.4049072265625	-1532.50341796875	1253.912719726562	-484.9180297851562	-1792.5087890625	1185.534423828125	-612.3817749023438	-1734.137084960938	1453.25732421875	-565.7166748046875	-1562.432983398438	1367.869750976562	-503.3021545410156	-1835.829711914062	1334.160766601562	-512.6423950195312	-1722.712768554688	1406.897705078125	-669.0478515625	-1595.13623046875	1430.215209960938	-701.4462890625	-1565.146484375	1312.425537109375	-796.4814453125	-1536.843383789062	1097.982421875	-826.2921142578125	-1631.441162109375	1079.584838867188	-790.04248046875	-1461.293090820312	907.08203125	-772.1568603515625	-1498.8603515625	881.7708740234375	-833.1506958007812	-1512.12158203125	1012.157958984375	-832.2947387695312	-1425.70166015625	745.400390625	-760.3899536132812	-1477.026123046875	802.0008544921875	-826.1437377929688	-1428.8974609375	824.6065673828125	-776.7913818359375	-1744.330688476562	1417.809692382812	-391.5845336914062	-1792.709594726562	1354.67822265625	-332.1950378417969	-1802.630493164062	1068.225708007812	-278.2557373046875	-1833.609375	1051.749877929688	-336.2833557128906	-1692.8515625	867.1038818359375	-275.6251525878906	-1775.978271484375	850.3180541992188	-252.8063201904297	-1803.140258789062	1010.173217773438	-268.3388671875	-1690.666381835938	708.3395385742188	-268.325927734375	-1682.677490234375	767.173095703125	-258.1361694335938	-1757.776245117188	763.7675170898438	-246.9806823730469	-1671.2646484375	1649.673217773438	-441.2058410644531	-1478.620361328125	1640.079711914062	-521.5298461914062	-1538.410888671875	1640.900390625	-403.8921203613281	-1605.57861328125	1655.71484375	-606.2640380859375	-1572.958984375	865.8350219726562	-723.3374633789062	-1784.004760742188	862.1885986328125	-386.8455200195312	-1660.842651367188	902.3790283203125	-385.543701171875	-1522.807739257812	902.2228393554688	-605.6043090820312	-1574.248046875	443.2504272460938	-693.188720703125	-1543.71142578125	596.1534423828125	-698.0873413085938	-1681.313720703125	34.96089553833008	-760.9459838867188	-1595.23095703125	292.1067504882812	-721.9569091796875	-1511.138427734375	44.71648788452148	-593.6536254882812	-1587.613159179688	54.15030670166016	-599.4569702148438	-1540.403442382812	43.88456726074219	-705.6914672851562	-1754.39990234375	37.14144515991211	-737.8336791992188	-1748.2080078125	470.2344055175781	-391.0924987792969	-1752.170532226562	729.6911010742188	-352.6224670410156	-1821.704467773438	42.45245361328125	-416.1057739257812	-1765.0458984375	325.9317932128906	-380.5287475585938	-1609.190063476562	49.33230209350586	-358.9521179199219	-1648.1962890625	55.81218719482422	-418.9034423828125	-1714.78369140625	47.12955474853516	-332.5992126464844	-1858.515869140625	34.38335418701172	-488.52197265625	
58	0.5700000000000001	-1816.981079101562	965.1643676757812	-561.2352905273438	-1747.793701171875	966.810302734375	-684.2560424804688	-1778.419067382812	1060.785278320312	-602.1102905273438	-1532.323852539062	1253.880249023438	-484.6678161621094	-1792.617431640625	1185.65283203125	-612.09765625	-1733.928833007812	1453.2705078125	-565.3988647460938	-1562.208984375	1367.846557617188	-503.0667114257812	-1835.654296875	1334.219116210938	-512.2719116210938	-1722.546264648438	1406.9013671875	-668.6871337890625	-1594.940551757812	1430.190185546875	-701.1447143554688	-1565.0654296875	1312.475219726562	-796.272216796875	-1536.76171875	1098.05908203125	-826.1966552734375	-1631.468139648438	1079.712524414062	-789.968994140625	-1460.925659179688	907.134521484375	-772.2922973632812	-1498.760864257812	881.778076171875	-833.2249145507812	-1512.0673828125	1012.222106933594	-832.2775268554688	-1425.414428710938	745.44970703125	-760.5072631835938	-1477.046875	802.0955200195312	-826.354736328125	-1428.90576171875	824.5817260742188	-776.9390258789062	-1744.071044921875	1417.859619140625	-391.2325439453125	-1792.439453125	1354.757080078125	-331.8321533203125	-1802.466918945312	1068.300537109375	-277.8473205566406	-1833.417846679688	1051.84814453125	-335.8594360351562	-1692.760375976562	867.2042846679688	-275.3467712402344	-1775.787109375	850.4176025390625	-252.4000701904297	-1802.99853515625	1010.288696289062	-267.9560852050781	-1690.840454101562	708.4201049804688	-267.9089660644531	-1682.498046875	767.2943725585938	-257.6990356445312	-1757.623657226562	763.8904418945312	-246.6095123291016	-1670.929809570312	1649.672973632812	-440.9351501464844	-1478.395385742188	1639.990600585938	-521.3076782226562	-1538.090454101562	1640.820556640625	-403.6542053222656	-1605.356323242188	1655.722778320312	-605.9569091796875	-1573.180297851562	865.8521118164062	-723.2036743164062	-1783.964111328125	862.2236938476562	-386.6211853027344	-1660.699096679688	902.4110107421875	-385.3526611328125	-1522.84912109375	902.2164916992188	-605.4984130859375	-1574.445434570312	443.2992858886719	-693.1674194335938	-1543.912109375	596.1546020507812	-698.0208129882812	-1681.341674804688	34.97279357910156	-760.9412841796875	-1595.235229492188	292.1540222167969	-721.8883056640625	-1511.14013671875	44.7146110534668	-593.6633911132812	-1587.645385742188	54.16666030883789	-599.477783203125	-1540.41015625	43.88866424560547	-705.6902465820312	-1754.408935546875	37.13246917724609	-737.8141479492188	-1748.169555664062	470.1803588867188	-390.9266357421875	-1752.079223632812	729.6882934570312	-352.430908203125	-1821.713745117188	42.43002319335938	-416.097412109375	-1765.06689453125	325.9167175292969	-380.4481201171875	-1609.193237304688	49.33648681640625	-358.9622802734375	-1648.207763671875	55.82695388793945	-418.9006042480469	-1714.789794921875	47.12605285644531	-332.5909423828125	-1858.573364257812	34.3580436706543	-488.4674072265625	
